# xmcd CD database file
#
# Track frame offsets:
#	150
#	21600
#	40917
#	63710
#
# Disc length: 1132 seconds
#
# Revision: 0
# Processed by: cddbd v1.5.1PL0 Copyright (c) Steve Scherf et al.
# Submitted via: CDex 1.51
#
DISCID=37046a04
DTITLE=山崎 まさよし - ビー玉望遠鏡
DYEAR=2004
DGENRE=JPop
TTITLE0=ビー玉望遠鏡
TTITLE1=十六夜
TTITLE2=mud skiffle track XIII
TTITLE3=ビー玉望遠鏡 (backing track)
EXTD=YEAR: 2004
EXTT0=
EXTT1=
EXTT2=
EXTT3=
PLAYORDER=
